<?xml version="1.0" encoding="UTF-8" standalone="no"?>
<!-- Created with Inkscape (http://www.inkscape.org/) -->

<svg
   xmlns:ns0="http://www.iki.fi/pav/software/textext/"
   xmlns:dc="http://purl.org/dc/elements/1.1/"
   xmlns:cc="http://creativecommons.org/ns#"
   xmlns:rdf="http://www.w3.org/1999/02/22-rdf-syntax-ns#"
   xmlns:svg="http://www.w3.org/2000/svg"
   xmlns="http://www.w3.org/2000/svg"
   xmlns:sodipodi="http://sodipodi.sourceforge.net/DTD/sodipodi-0.dtd"
   xmlns:inkscape="http://www.inkscape.org/namespaces/inkscape"
   width="744.10352"
   height="548.53729"
   id="svg2"
   version="1.1"
   inkscape:version="0.48.4 r9939"
   sodipodi:docname="spin_mag_diagram.pdf">
  <sodipodi:namedview
     id="base"
     pagecolor="#ffffff"
     bordercolor="#666666"
     borderopacity="1.0"
     inkscape:pageopacity="0.0"
     inkscape:pageshadow="2"
     inkscape:zoom="0.77349796"
     inkscape:cx="-83.167569"
     inkscape:cy="279.25091"
     inkscape:document-units="px"
     inkscape:current-layer="layer3"
     showgrid="false"
     inkscape:snap-grids="false"
     inkscape:snap-object-midpoints="true"
     inkscape:window-width="1706"
     inkscape:window-height="961"
     inkscape:window-x="65"
     inkscape:window-y="48"
     inkscape:window-maximized="0"
     fit-margin-top="0"
     fit-margin-left="0"
     fit-margin-right="0"
     fit-margin-bottom="0" />
  <defs
     id="defs4">
    <marker
       style="overflow:visible"
       id="EmptyTriangleOutL"
       refX="0"
       refY="0"
       orient="auto"
       inkscape:stockid="EmptyTriangleOutL">
      <path
         transform="matrix(0.8,0,0,0.8,-4.8,0)"
         style="fill:#ffffff;fill-rule:evenodd;stroke:#000000;stroke-width:1pt"
         d="m 5.77,0 -8.65,5 0,-10 8.65,5 z"
         id="path5193"
         inkscape:connector-curvature="0" />
    </marker>
    <marker
       style="overflow:visible"
       id="TriangleOutL"
       refX="0"
       refY="0"
       orient="auto"
       inkscape:stockid="TriangleOutL">
      <path
         transform="scale(0.8,0.8)"
         style="fill-rule:evenodd;stroke:#000000;stroke-width:1pt"
         d="m 5.77,0 -8.65,5 0,-10 8.65,5 z"
         id="path5175"
         inkscape:connector-curvature="0" />
    </marker>
    <marker
       style="overflow:visible"
       id="TriangleOutM"
       refX="0"
       refY="0"
       orient="auto"
       inkscape:stockid="TriangleOutM">
      <path
         transform="scale(0.4,0.4)"
         style="fill-rule:evenodd;stroke:#000000;stroke-width:1pt"
         d="m 5.77,0 -8.65,5 0,-10 8.65,5 z"
         id="path4466"
         inkscape:connector-curvature="0" />
    </marker>
    <marker
       style="overflow:visible"
       id="Arrow2Send"
       refX="0"
       refY="0"
       orient="auto"
       inkscape:stockid="Arrow2Send">
      <path
         transform="matrix(-0.3,0,0,-0.3,0.69,0)"
         d="M 8.7185878,4.0337352 -2.2072895,0.01601326 8.7185884,-4.0017078 c -1.7454984,2.3720609 -1.7354408,5.6174519 -6e-7,8.035443 z"
         style="fill-rule:evenodd;stroke-width:0.625;stroke-linejoin:round"
         id="path4354"
         inkscape:connector-curvature="0" />
    </marker>
    <marker
       style="overflow:visible"
       id="Arrow1Send"
       refX="0"
       refY="0"
       orient="auto"
       inkscape:stockid="Arrow1Send">
      <path
         transform="matrix(-0.2,0,0,-0.2,-1.2,0)"
         style="fill-rule:evenodd;stroke:#000000;stroke-width:1pt"
         d="M 0,0 5,-5 -12.5,0 5,5 0,0 z"
         id="path4336"
         inkscape:connector-curvature="0" />
    </marker>
    <marker
       style="overflow:visible"
       id="Arrow2Lend"
       refX="0"
       refY="0"
       orient="auto"
       inkscape:stockid="Arrow2Lend">
      <path
         transform="matrix(-1.1,0,0,-1.1,-1.1,0)"
         d="M 8.7185878,4.0337352 -2.2072895,0.01601326 8.7185884,-4.0017078 c -1.7454984,2.3720609 -1.7354408,5.6174519 -6e-7,8.035443 z"
         style="fill-rule:evenodd;stroke-width:0.625;stroke-linejoin:round"
         id="path4342"
         inkscape:connector-curvature="0" />
    </marker>
    <marker
       style="overflow:visible"
       id="Arrow2Lstart"
       refX="0"
       refY="0"
       orient="auto"
       inkscape:stockid="Arrow2Lstart">
      <path
         transform="matrix(1.1,0,0,1.1,1.1,0)"
         d="M 8.7185878,4.0337352 -2.2072895,0.01601326 8.7185884,-4.0017078 c -1.7454984,2.3720609 -1.7354408,5.6174519 -6e-7,8.035443 z"
         style="fill-rule:evenodd;stroke-width:0.625;stroke-linejoin:round"
         id="path4339"
         inkscape:connector-curvature="0" />
    </marker>
    <marker
       inkscape:stockid="Arrow1Mend"
       orient="auto"
       refY="0"
       refX="0"
       id="Arrow1Mend"
       style="overflow:visible">
      <path
         id="path3879"
         d="M 0,0 5,-5 -12.5,0 5,5 0,0 z"
         style="fill-rule:evenodd;stroke:#000000;stroke-width:1pt"
         transform="matrix(-0.4,0,0,-0.4,-4,0)"
         inkscape:connector-curvature="0" />
    </marker>
    <marker
       inkscape:stockid="Arrow1Mstart"
       orient="auto"
       refY="0"
       refX="0"
       id="Arrow1Mstart"
       style="overflow:visible">
      <path
         id="path3876"
         d="M 0,0 5,-5 -12.5,0 5,5 0,0 z"
         style="fill-rule:evenodd;stroke:#000000;stroke-width:1pt"
         transform="matrix(0.4,0,0,0.4,4,0)"
         inkscape:connector-curvature="0" />
    </marker>
    <marker
       inkscape:stockid="Arrow1Lend"
       orient="auto"
       refY="0"
       refX="0"
       id="Arrow1Lend"
       style="overflow:visible">
      <path
         id="path3873"
         d="M 0,0 5,-5 -12.5,0 5,5 0,0 z"
         style="fill-rule:evenodd;stroke:#000000;stroke-width:1pt"
         transform="matrix(-0.8,0,0,-0.8,-10,0)"
         inkscape:connector-curvature="0" />
    </marker>
    <marker
       inkscape:stockid="Arrow1Lstart"
       orient="auto"
       refY="0"
       refX="0"
       id="Arrow1Lstart"
       style="overflow:visible">
      <path
         id="path3870"
         d="M 0,0 5,-5 -12.5,0 5,5 0,0 z"
         style="fill-rule:evenodd;stroke:#000000;stroke-width:1pt"
         transform="matrix(0.8,0,0,0.8,10,0)"
         inkscape:connector-curvature="0" />
    </marker>
    <marker
       style="overflow:visible"
       id="TriangleOutM-6"
       refX="0"
       refY="0"
       orient="auto"
       inkscape:stockid="TriangleOutM">
      <path
         transform="scale(0.4,0.4)"
         style="fill-rule:evenodd;stroke:#000000;stroke-width:1pt"
         d="m 5.77,0 -8.65,5 0,-10 8.65,5 z"
         id="path4466-7"
         inkscape:connector-curvature="0" />
    </marker>
  </defs>
  <metadata
     id="metadata7">
    <rdf:RDF>
      <cc:Work
         rdf:about="">
        <dc:format>image/svg+xml</dc:format>
        <dc:type
           rdf:resource="http://purl.org/dc/dcmitype/StillImage" />
        <dc:title></dc:title>
      </cc:Work>
    </rdf:RDF>
  </metadata>
  <g
     inkscape:groupmode="layer"
     id="layer3"
     inkscape:label="Layer"
     transform="translate(-0.13926989,-256.89468)">
    <path
       sodipodi:type="arc"
       style="fill:#ffffff;fill-opacity:1;stroke:#000000;stroke-width:4;stroke-miterlimit:4;stroke-opacity:1;stroke-dasharray:none;marker-start:url(#Arrow1Mstart);marker-end:none"
       id="path5257"
       sodipodi:cx="376.26294"
       sodipodi:cy="404.65521"
       sodipodi:rx="157.67513"
       sodipodi:ry="157.67513"
       d="m 229.09052,461.23898 c -30.71708,-79.89404 7.91737,-169.7035 87.04495,-202.3443"
       sodipodi:start="2.7745432"
       sodipodi:end="4.3211461"
       sodipodi:open="true" />
    <path
       style="fill:none;stroke:#000000;stroke-width:4;stroke-linecap:butt;stroke-linejoin:miter;stroke-miterlimit:4;stroke-opacity:1;stroke-dasharray:none;marker-start:none;marker-end:url(#Arrow1Mend)"
       d="m 267.61544,643.82846 0,-116.35454"
       id="path6773"
       inkscape:connector-curvature="0" />
    <g
       style="font-style:normal;font-variant:normal;font-weight:normal;font-stretch:normal;letter-spacing:normal;word-spacing:normal;text-anchor:start;fill:none;stroke:#000000;stroke-linecap:butt;stroke-linejoin:miter;stroke-miterlimit:10.43299961;stroke-opacity:1;stroke-dasharray:none;stroke-dashoffset:0"
       id="g3199"
       transform="matrix(6.5,0,0,-6.5,-1283.1932,4625.4842)"
       xml:space="preserve"
       stroke-miterlimit="10.433"
       font-style="normal"
       font-variant="normal"
       font-weight="normal"
       font-stretch="normal"
       font-size-adjust="none"
       letter-spacing="normal"
       word-spacing="normal"
       ns0:text="$\\omega$"
       ns0:preamble="/home/ben/configs/anyname.ini"><path
         style="fill:#000000;stroke-width:0"
         inkscape:connector-curvature="0"
         d="m 229.45,660.93 0,0.04 0,0.04 0,0.04 -0.01,0.04 0,0.03 -0.01,0.04 0,0.03 -0.01,0.04 -0.01,0.03 -0.01,0.03 -0.01,0.03 -0.01,0.03 -0.01,0.02 -0.01,0.03 -0.01,0.02 -0.02,0.03 -0.01,0.02 -0.01,0.02 -0.02,0.02 -0.01,0.01 -0.02,0.02 -0.02,0.01 -0.01,0.02 -0.02,0.01 -0.02,0.01 -0.02,0.01 -0.02,0.01 -0.02,0 -0.02,0.01 -0.02,0 -0.02,0.01 -0.02,0 c -0.26,0 -0.52,-0.24 -0.52,-0.47 0,-0.1 0.05,-0.21 0.15,-0.3 0.16,-0.15 0.34,-0.42 0.34,-0.83 0,-0.4 -0.19,-0.97 -0.49,-1.42 -0.3,-0.43 -0.67,-0.77 -1.14,-0.77 -0.57,0 -0.87,0.36 -0.96,0.89 0.11,0.26 0.33,0.9 0.33,1.18 0,0.12 -0.05,0.22 -0.17,0.22 -0.08,0 -0.19,-0.02 -0.27,-0.17 -0.11,-0.2 -0.23,-0.85 -0.23,-1.2 -0.33,-0.47 -0.73,-0.92 -1.35,-0.92 -0.66,0 -0.87,0.59 -0.87,1.14 0,1.24 1.01,2.29 1.01,2.42 0,0.11 -0.08,0.19 -0.18,0.19 -0.13,0 -0.2,-0.13 -0.26,-0.22 -0.51,-0.74 -0.89,-1.92 -0.89,-2.82 0,-0.69 0.23,-1.42 1.05,-1.42 0.7,0 1.17,0.49 1.53,1.04 0.09,-0.58 0.48,-1.04 1.09,-1.04 0.78,0 1.26,0.6 1.61,1.35 0.24,0.48 0.62,1.83 0.62,2.45 z"
         id="path3201" /></g>    <g
       style="font-style:normal;font-variant:normal;font-weight:normal;font-stretch:normal;letter-spacing:normal;word-spacing:normal;text-anchor:start;fill:none;stroke:#000000;stroke-linecap:butt;stroke-linejoin:miter;stroke-miterlimit:10.43299961;stroke-opacity:1;stroke-dasharray:none;stroke-dashoffset:0"
       ns0:preamble="/home/ben/configs/anyname.ini"
       ns0:text="\\begin{small}\n\\[ \\hat{\\textbf{n}} \\]\n\\end{small}"
       word-spacing="normal"
       letter-spacing="normal"
       font-size-adjust="none"
       font-stretch="normal"
       font-weight="normal"
       font-variant="normal"
       font-style="normal"
       stroke-miterlimit="10.433"
       xml:space="preserve"
       transform="matrix(6.5184271,0,0,-6.3347315,-2343.8948,4692.9932)"
       id="content"><polygon
         id="polygon6209"
         points="395.29,652.11 396.35,651.21 396.51,651.4 395.29,652.61 394.05,651.4 394.21,651.21 "
         style="fill:#000000;stroke-width:0" /><path
         id="path6211"
         d="m 397.37,649 0,0.05 0,0.05 0,0.05 -0.01,0.04 0,0.05 0,0.04 -0.02,0.08 -0.01,0.08 -0.02,0.08 -0.03,0.07 -0.02,0.06 -0.03,0.07 -0.03,0.06 -0.04,0.05 -0.03,0.05 -0.04,0.05 -0.05,0.04 -0.04,0.04 -0.05,0.04 -0.05,0.03 -0.05,0.04 -0.05,0.02 -0.06,0.03 -0.06,0.02 -0.06,0.02 -0.06,0.02 -0.06,0.02 -0.06,0.01 -0.07,0.01 -0.07,0.01 -0.07,0.01 -0.07,0 -0.07,0.01 -0.07,0 -0.07,0 c -1.1,0 -1.54,-0.81 -1.6,-0.94 h -0.01 v 0.94 l -1.55,-0.07 v -0.44 c 0.54,0 0.61,0 0.61,-0.35 v -2.73 h -0.61 v -0.43 c 0.66,0.02 0.77,0.02 1.13,0.02 0.36,0 0.45,0 1.13,-0.02 v 0.43 h -0.61 v 1.84 c 0,1 0.83,1.39 1.36,1.39 0.35,0 0.53,-0.19 0.53,-0.86 v -2.37 h -0.61 v -0.43 c 0.66,0.02 0.77,0.02 1.12,0.02 0.37,0 0.46,0 1.14,-0.02 v 0.43 h -0.61 z"
         inkscape:connector-curvature="0"
         style="fill:#000000;stroke-width:0" /></g>    <path
       inkscape:connector-curvature="0"
       id="path5703"
       d="m 121.52585,391.72696 -100.840598,0"
       style="fill:none;stroke:#000000;stroke-width:4;stroke-linecap:butt;stroke-linejoin:miter;stroke-miterlimit:4;stroke-opacity:1;stroke-dasharray:none;marker-end:url(#TriangleOutL)" />
    <g
       ns0:preamble="/home/ben/configs/anyname.ini"
       ns0:text="$\\textbf{F}$"
       word-spacing="normal"
       letter-spacing="normal"
       font-size-adjust="none"
       font-stretch="normal"
       font-weight="normal"
       font-variant="normal"
       font-style="normal"
       stroke-miterlimit="10.433"
       xml:space="preserve"
       transform="matrix(6.5,0,0,-6.5,-1384.0338,4656.512)"
       id="g5946"
       style="font-style:normal;font-variant:normal;font-weight:normal;font-stretch:normal;letter-spacing:normal;word-spacing:normal;text-anchor:start;fill:none;stroke:#000000;stroke-linecap:butt;stroke-linejoin:miter;stroke-miterlimit:10.43299961;stroke-opacity:1;stroke-dasharray:none;stroke-dashoffset:0"><path
         id="path5948"
         d="m 229.84,663.99 h -6.02 v -0.47 h 1.08 v -5.82 h -1.08 v -0.47 c 0.38,0.04 1.38,0.04 1.82,0.04 0.49,0 1.57,0 2.01,-0.04 v 0.47 h -1.34 v 2.68 h 0.49 c 0.96,0 1.05,-0.42 1.05,-1.16 h 0.47 v 2.79 h -0.47 c 0,-0.73 -0.08,-1.16 -1.05,-1.16 h -0.49 v 2.67 h 1.39 c 1.6,0 1.83,-0.76 1.98,-1.92 h 0.47 z"
         inkscape:connector-curvature="0"
         style="fill:#000000;stroke-width:0" /></g>  </g>
  <g
     inkscape:label="Layer 1"
     inkscape:groupmode="layer"
     id="layer1"
     transform="translate(-0.13926989,-256.89468)">
    <path
       sodipodi:type="arc"
       style="fill:#ffffff;fill-opacity:1;fill-rule:evenodd;stroke:#000000;stroke-width:1px;stroke-linecap:butt;stroke-linejoin:miter;stroke-opacity:1"
       id="path2985"
       sodipodi:cx="409.18015"
       sodipodi:cy="471.2359"
       sodipodi:rx="91.144394"
       sodipodi:ry="91.144394"
       d="m 500.32454,471.2359 c 0,50.33766 -40.80674,91.14439 -91.14439,91.14439 -50.33766,0 -91.1444,-40.80673 -91.1444,-91.14439 0,-50.33766 40.80674,-91.14439 91.1444,-91.14439 50.33765,0 91.14439,40.80673 91.14439,91.14439 z"
       transform="matrix(1.2821402,0,0,1.2821402,-150.30261,-199.40693)" />
    <path
       sodipodi:type="arc"
       style="fill:#ffffff;fill-opacity:1"
       id="path3759"
       sodipodi:cx="380.09149"
       sodipodi:cy="719.45892"
       sodipodi:rx="68.519897"
       sodipodi:ry="85.973076"
       d="m 448.61139,719.45892 c 0,47.48162 -30.6774,85.97308 -68.5199,85.97308 -37.84249,0 -68.5199,-38.49146 -68.5199,-85.97308 0,-47.48162 30.67741,-85.97307 68.5199,-85.97307 37.8425,0 68.5199,38.49145 68.5199,85.97307 z" />
    <path
       sodipodi:type="arc"
       style="fill:#ffffff;fill-opacity:1"
       id="path3761"
       sodipodi:cx="374.27377"
       sodipodi:cy="722.69098"
       sodipodi:rx="63.994999"
       sodipodi:ry="1.2928282"
       d="m 438.26877,722.69098 c 0,0.71401 -28.65153,1.29283 -63.995,1.29283 -35.34346,0 -63.995,-0.57882 -63.995,-1.29283 0,-0.71401 28.65154,-1.29283 63.995,-1.29283 35.34347,0 63.995,0.57882 63.995,1.29283 z" />
    <rect
       style="fill:#ffffff;fill-opacity:1;stroke:#000000;stroke-width:0.99550068;stroke-opacity:1"
       id="rect3767"
       width="743.10803"
       height="74.984039"
       x="0.63702023"
       y="643.82849" />
    <path
       style="fill:none;stroke:#000000;stroke-width:1px;stroke-linecap:butt;stroke-linejoin:miter;stroke-opacity:1"
       d="M 376.26293,404.65523 317.80426,505.90861"
       id="path3771"
       inkscape:connector-curvature="0" />
    <path
       style="fill:none;stroke:#000000;stroke-width:1px;stroke-linecap:butt;stroke-linejoin:miter;stroke-opacity:1"
       d="m 433.98683,504.63595 -57.7239,-99.98072 -120.28294,0 232.70908,0 -112.42614,0 -57.89885,-100.28375 57.89885,100.28375 57.31408,-99.2709"
       id="path3773"
       inkscape:connector-curvature="0" />
    <flowRoot
       style="font-size:36px;font-style:normal;font-weight:normal;line-height:125%;letter-spacing:0px;word-spacing:0px;fill:#000000;fill-opacity:1;stroke:none;font-family:Sans"
       id="flowRoot3509"
       xml:space="preserve"><flowRegion
         id="flowRegion3511"><rect
           style="font-size:36px"
           y="660.63525"
           x="80.15535"
           height="46.541817"
           width="629.60736"
           id="rect3513" /></flowRegion><flowPara
         id="flowPara3515" /></flowRoot>    <text
       sodipodi:linespacing="125%"
       id="text3517"
       y="689.07745"
       x="183.58162"
       style="font-size:36px;font-style:normal;font-weight:normal;line-height:125%;letter-spacing:0px;word-spacing:0px;fill:#000000;fill-opacity:1;stroke:none;font-family:Sans"
       xml:space="preserve"><tspan
         style="font-style:normal;font-variant:normal;font-weight:normal;font-stretch:normal;font-family:Liberation Serif;-inkscape-font-specification:Liberation Serif"
         y="689.07745"
         x="183.58162"
         id="tspan3519"
         sodipodi:role="line">Conductive Target Surface</tspan></text>
    <path
       inkscape:connector-curvature="0"
       id="path3523"
       d="m 51.713129,642.53563 0,-129.28282"
       style="fill:none;stroke:#000000;stroke-width:4;stroke-linecap:butt;stroke-linejoin:miter;stroke-miterlimit:4;stroke-opacity:1;stroke-dasharray:none;marker-start:none;marker-end:url(#TriangleOutM)" />
    <path
       inkscape:connector-curvature="0"
       id="path3523-8"
       d="m 51.475615,642.53563 129.282825,0"
       style="fill:none;stroke:#000000;stroke-width:4;stroke-linecap:butt;stroke-linejoin:miter;stroke-miterlimit:4;stroke-opacity:1;stroke-dasharray:none;marker-start:none;marker-end:url(#TriangleOutM)" />
    <flowRoot
       transform="translate(-1.2928282,-19.392423)"
       style="font-size:36px;font-style:normal;font-variant:normal;font-weight:500;font-stretch:normal;line-height:125%;letter-spacing:0px;word-spacing:0px;fill:#000000;fill-opacity:1;stroke:none;font-family:TeX Gyre Chorus;-inkscape-font-specification:TeX Gyre Chorus Medium"
       id="flowRoot6159"
       xml:space="preserve"><flowRegion
         id="flowRegion6161"><rect
           style="font-size:36px;font-style:normal;font-variant:normal;font-weight:500;font-stretch:normal;font-family:TeX Gyre Chorus;-inkscape-font-specification:TeX Gyre Chorus Medium"
           y="531.35242"
           x="63.348583"
           height="46.541817"
           width="55.591614"
           id="rect6163" /></flowRegion><flowPara
         style="font-style:italic;font-variant:normal;font-weight:normal;font-stretch:normal;font-family:Liberation Serif;-inkscape-font-specification:Liberation Serif"
         id="flowPara6165">z</flowPara></flowRoot>    <text
       sodipodi:linespacing="125%"
       id="text6167"
       y="625.72888"
       x="147.38242"
       style="font-size:36px;font-style:italic;font-variant:normal;font-weight:bold;font-stretch:normal;line-height:125%;letter-spacing:0px;word-spacing:0px;fill:#000000;fill-opacity:1;stroke:none;font-family:URW Chancery L;-inkscape-font-specification:URW Chancery L Bold Italic"
       xml:space="preserve"><tspan
         style="font-style:italic;font-variant:normal;font-weight:normal;font-stretch:normal;font-family:Liberation Serif;-inkscape-font-specification:Liberation Serif Italic"
         y="625.72888"
         x="147.38242"
         id="tspan6169"
         sodipodi:role="line">x</tspan></text>
    <text
       sodipodi:linespacing="125%"
       id="text6171"
       y="289.59354"
       x="442.14725"
       style="font-size:14px;font-style:normal;font-weight:normal;line-height:125%;letter-spacing:0px;word-spacing:0px;fill:#000000;fill-opacity:1;stroke:none;font-family:Sans"
       xml:space="preserve"><tspan
         style="font-size:36px;font-style:normal;font-variant:normal;font-weight:normal;font-stretch:normal;font-family:Liberation Serif;-inkscape-font-specification:Liberation Serif"
         y="289.59354"
         x="442.14725"
         id="tspan6173"
         sodipodi:role="line">Magnet Array</tspan></text>
  </g>
  <g
     inkscape:groupmode="layer"
     id="layer2"
     inkscape:label="Layer2"
     transform="translate(-0.13926989,-256.89468)">
    <path
       sodipodi:type="arc"
       style="fill:#ffffff;fill-opacity:1;stroke:#000000;stroke-opacity:1"
       id="path3763-8"
       sodipodi:cx="267.61545"
       sodipodi:cy="687.78461"
       sodipodi:rx="73.691208"
       sodipodi:ry="73.691208"
       d="m 341.30666,687.78461 c 0,40.69853 -32.99268,73.6912 -73.69121,73.6912 -40.69853,0 -73.69121,-32.99267 -73.69121,-73.6912 0,-40.69853 32.99268,-73.69121 73.69121,-73.69121 40.69853,0 73.69121,32.99268 73.69121,73.69121 z"
       transform="translate(108.64748,-283.12938)" />
    <flowRoot
       xml:space="preserve"
       id="flowRoot3803"
       style="font-size:24px;font-style:normal;font-weight:normal;line-height:125%;letter-spacing:0px;word-spacing:0px;fill:#000000;fill-opacity:1;stroke:none;font-family:Sans"><flowRegion
         id="flowRegion3805"><rect
           id="rect3807"
           width="86.619492"
           height="53.005959"
           x="340.01382"
           y="471.88229"
           style="font-size:24px" /></flowRegion><flowPara
         id="flowPara3809" /></flowRoot>    <flowRoot
       xml:space="preserve"
       id="flowRoot3811"
       style="font-size:14px;font-style:normal;font-weight:normal;line-height:125%;letter-spacing:0px;word-spacing:0px;fill:#000000;fill-opacity:1;stroke:none;font-family:Sans"><flowRegion
         id="flowRegion3813"><rect
           id="rect3815"
           width="63.348583"
           height="40.077675"
           x="350.35645"
           y="482.22495" /></flowRegion><flowPara
         id="flowPara3817" /></flowRoot>    <text
       xml:space="preserve"
       style="font-size:14px;font-style:normal;font-weight:normal;line-height:125%;letter-spacing:0px;word-spacing:0px;fill:#000000;fill-opacity:1;stroke:none;font-family:Sans"
       x="359.40625"
       y="511.95996"
       id="text3819"
       sodipodi:linespacing="125%"><tspan
         sodipodi:role="line"
         id="tspan3821"
         x="359.40625"
         y="511.95996"
         style="font-size:36px">N</tspan></text>
    <text
       xml:space="preserve"
       style="font-size:14px;font-style:normal;font-weight:normal;line-height:125%;letter-spacing:0px;word-spacing:0px;fill:#000000;fill-opacity:1;stroke:none;font-family:Sans"
       x="360.16251"
       y="322.10803"
       id="text3819-2"
       sodipodi:linespacing="125%"><tspan
         sodipodi:role="line"
         id="tspan3821-3"
         x="360.16251"
         y="322.10803"
         style="font-size:36px">S</tspan><tspan
         sodipodi:role="line"
         x="360.16251"
         y="367.10803"
         style="font-size:36px"
         id="tspan3844" /></text>
    <g
       id="g3850"
       transform="matrix(1,0,0,0.86524852,0,86.497206)">
      <flowRoot
         xml:space="preserve"
         id="flowRoot3856"
         style="font-size:14px;font-style:normal;font-weight:normal;line-height:125%;letter-spacing:0px;word-spacing:0px;fill:#000000;fill-opacity:1;stroke:none;font-family:Sans"><flowRegion
           id="flowRegion3858"><rect
             id="rect3860"
             width="64.641411"
             height="60.762928"
             x="416.29068"
             y="546.86633" /></flowRegion><flowPara
           id="flowPara3862" /></flowRoot>    </g>
    <path
       style="fill:none;stroke:#000000;stroke-width:4;stroke-linecap:butt;stroke-linejoin:miter;stroke-miterlimit:4;stroke-opacity:1;stroke-dasharray:none;marker-start:url(#Arrow1Mstart);marker-mid:none;marker-end:url(#Arrow1Mend)"
       d="m 372.33453,527.47392 0,108.59757"
       id="path3864"
       inkscape:connector-curvature="0" />
    <flowRoot
       xml:space="preserve"
       id="flowRoot5242"
       style="font-size:14px;font-style:normal;font-weight:normal;line-height:125%;letter-spacing:0px;word-spacing:0px;fill:#000000;fill-opacity:1;stroke:none;font-family:Sans"><flowRegion
         id="flowRegion5244"><rect
           id="rect5246"
           width="78.862526"
           height="59.4701"
           x="396.89825"
           y="557.20898" /></flowRegion><flowPara
         id="flowPara5248" /></flowRoot>    <g
       id="g3453"
       transform="matrix(6.5,0,0,-6.5,-1060.8268,4872.4144)"
       xml:space="preserve"
       stroke-miterlimit="10.433"
       font-style="normal"
       font-variant="normal"
       font-weight="normal"
       font-stretch="normal"
       font-size-adjust="none"
       letter-spacing="normal"
       word-spacing="normal"
       ns0:text="$g$"
       ns0:preamble="/home/ben/configs/anyname.ini"
       style="font-style:normal;font-variant:normal;font-weight:normal;font-stretch:normal;letter-spacing:normal;word-spacing:normal;text-anchor:start;fill:none;stroke:#000000;stroke-linecap:butt;stroke-linejoin:miter;stroke-miterlimit:10.43299961;stroke-opacity:1;stroke-dasharray:none;stroke-dashoffset:0"><path
         style="fill:#000000;stroke-width:0"
         inkscape:connector-curvature="0"
         d="m 228.12,660.98 0,0.01 0,0.01 0,0.01 0.01,0.01 0,0.02 0,0.02 0.01,0.01 0,0.01 0,0.01 0,0.01 0,0.01 0.01,0.01 0,0.01 0,0 0,0.01 0,0.01 0,0 0,0.01 c 0,0.17 -0.12,0.27 -0.29,0.27 -0.1,0 -0.37,-0.07 -0.41,-0.43 -0.18,0.37 -0.53,0.63 -0.92,0.63 l 0.01,-0.22 c 0.65,0 0.79,-0.81 0.79,-0.86 0,-0.05 -0.02,-0.11 -0.03,-0.15 l -0.48,-1.89 c -0.06,-0.26 -0.28,-0.51 -0.5,-0.7 -0.21,-0.18 -0.52,-0.36 -0.81,-0.36 -0.5,0 -0.64,0.52 -0.64,0.92 0,0.47 0.28,1.65 0.55,2.15 0.27,0.49 0.7,0.89 1.12,0.89 l -0.01,0.22 c -1.14,0 -2.37,-1.4 -2.37,-2.83 0,-0.98 0.6,-1.57 1.32,-1.57 0.59,0 1.06,0.47 1.16,0.58 l 0.01,-0.01 c -0.21,-0.88 -0.33,-1.29 -0.33,-1.31 -0.04,-0.09 -0.38,-1.07 -1.44,-1.07 -0.18,0 -0.51,0.01 -0.79,0.1 0.3,0.09 0.41,0.34 0.41,0.51 0,0.16 -0.11,0.35 -0.38,0.35 -0.22,0 -0.54,-0.18 -0.54,-0.58 0,-0.4 0.37,-0.6 1.32,-0.6 1.25,0 1.96,0.77 2.11,1.37 z"
         id="path3455" /></g>    <path
       d="m 389.70932,404.78357 c 0,8.49724 -6.88838,15.38561 -15.38562,15.38561 -8.49724,0 -15.38562,-6.88837 -15.38562,-15.38561 0,-8.49724 6.88838,-15.38562 15.38562,-15.38562 8.49724,0 15.38562,6.88838 15.38562,15.38562 z"
       sodipodi:ry="15.385615"
       sodipodi:rx="15.385615"
       sodipodi:cy="404.78357"
       sodipodi:cx="374.3237"
       id="path6175"
       style="fill:#ffffff;fill-opacity:1;stroke:#000000;stroke-width:1;stroke-miterlimit:4;stroke-opacity:1;stroke-dasharray:none"
       sodipodi:type="arc" />
    <path
       d="m 380.65952,404.78357 c 0,3.49917 -2.83664,6.33582 -6.33582,6.33582 -3.49918,0 -6.33582,-2.83665 -6.33582,-6.33582 0,-3.49918 2.83664,-6.33582 6.33582,-6.33582 3.49918,0 6.33582,2.83664 6.33582,6.33582 z"
       sodipodi:ry="6.3358173"
       sodipodi:rx="6.3358173"
       sodipodi:cy="404.78357"
       sodipodi:cx="374.3237"
       id="path6177"
       style="fill:#000000;fill-opacity:1;stroke:#000000;stroke-width:1;stroke-miterlimit:4;stroke-opacity:1;stroke-dasharray:none"
       sodipodi:type="arc" />
    <g
       id="g6379"
       transform="matrix(6.5,0,0,-6.5,-1057.6674,4688.9926)"
       xml:space="preserve"
       stroke-miterlimit="10.433"
       font-style="normal"
       font-variant="normal"
       font-weight="normal"
       font-stretch="normal"
       font-size-adjust="none"
       letter-spacing="normal"
       word-spacing="normal"
       ns0:text="$\\hat{\\textbf{a}}$"
       ns0:preamble="/home/ben/configs/anyname.ini"
       style="font-style:normal;font-variant:normal;font-weight:normal;font-stretch:normal;letter-spacing:normal;word-spacing:normal;text-anchor:start;fill:none;stroke:#000000;stroke-linecap:butt;stroke-linejoin:miter;stroke-miterlimit:10.43299961;stroke-opacity:1;stroke-dasharray:none;stroke-dashoffset:0"><polygon
         points="226.21,663.75 227.36,662.74 227.54,662.92 226.21,664.27 224.88,662.92 225.06,662.74 "
         id="polygon6381"
         style="fill:#000000;stroke-width:0" /><path
         d="m 227.15,658 0,-0.06 0.01,-0.06 0,-0.03 0,-0.03 0,-0.04 0.01,-0.03 0.01,-0.03 0,-0.03 0.02,-0.04 0.01,-0.03 0.01,-0.03 0.02,-0.03 0.02,-0.03 0.02,-0.03 0.03,-0.03 0.03,-0.02 0.03,-0.03 0.02,-0.01 0.02,-0.01 0.02,-0.02 0.02,-0.01 0.02,-0.01 0.02,-0.01 0.02,-0.01 0.03,-0.01 0.02,-0.01 0.03,-0.01 0.03,-0.01 0.03,-0.01 0.03,0 0.03,-0.01 0.03,-0.01 0.03,0 0.04,-0.01 0.04,0 0.03,-0.01 0.04,0 0.04,-0.01 0.05,0 0.04,0 0.04,0 0.05,0 0.05,-0.01 h 0.47 c 0.2,0 0.32,0 0.32,0.24 0,0.23 -0.13,0.23 -0.25,0.23 -0.61,0.01 -0.61,0.14 -0.61,0.37 v 2.14 c 0,0.88 -0.71,1.52 -2.19,1.52 -0.57,0 -1.78,-0.03 -1.78,-0.91 0,-0.44 0.35,-0.62 0.61,-0.62 0.31,0 0.63,0.2 0.63,0.62 0,0.3 -0.19,0.47 -0.22,0.49 0.28,0.06 0.6,0.07 0.72,0.07 0.75,0 1.09,-0.42 1.09,-1.17 v -0.34 -0.31 -0.94 c 0,-0.96 -0.91,-1.09 -1.16,-1.09 -0.51,0 -0.91,0.35 -0.91,0.79 0,1.07 1.58,1.21 2.07,1.24 h 0 v 0.31 c -0.7,-0.03 -3.23,-0.12 -3.23,-1.56 0,-0.96 1.23,-1.14 1.92,-1.14 0.8,0 1.26,0.41 1.48,0.83 z"
         id="path6383"
         inkscape:connector-curvature="0"
         style="fill:#000000;stroke-width:0" /></g>  </g>
</svg>
