<?xml version="1.0" encoding="UTF-8" standalone="no"?>
<!-- Created with Inkscape (http://www.inkscape.org/) -->

<svg
   xmlns:ns0="http://www.iki.fi/pav/software/textext/"
   xmlns:dc="http://purl.org/dc/elements/1.1/"
   xmlns:cc="http://creativecommons.org/ns#"
   xmlns:rdf="http://www.w3.org/1999/02/22-rdf-syntax-ns#"
   xmlns:svg="http://www.w3.org/2000/svg"
   xmlns="http://www.w3.org/2000/svg"
   xmlns:sodipodi="http://sodipodi.sourceforge.net/DTD/sodipodi-0.dtd"
   xmlns:inkscape="http://www.inkscape.org/namespaces/inkscape"
   width="744.09448819"
   height="1052.3622047"
   id="svg2"
   version="1.1"
   inkscape:version="0.48.4 r9939"
   sodipodi:docname="ink_ext_XXXXXX.svgP8LULX">
  <sodipodi:namedview
     id="base"
     pagecolor="#ffffff"
     bordercolor="#666666"
     borderopacity="1.0"
     inkscape:pageopacity="0.0"
     inkscape:pageshadow="2"
     inkscape:zoom="0.77349796"
     inkscape:cx="144.50947"
     inkscape:cy="526.18109"
     inkscape:document-units="px"
     inkscape:current-layer="layer3"
     showgrid="false"
     inkscape:snap-grids="false"
     inkscape:snap-object-midpoints="true"
     inkscape:window-width="1706"
     inkscape:window-height="961"
     inkscape:window-x="65"
     inkscape:window-y="48"
     inkscape:window-maximized="0" />
  <defs
     id="defs4">
    <marker
       inkscape:stockid="TriangleOutM"
       orient="auto"
       refY="0.0"
       refX="0.0"
       id="TriangleOutM"
       style="overflow:visible">
      <path
         id="path4466"
         d="M 5.77,0.0 L -2.88,5.0 L -2.88,-5.0 L 5.77,0.0 z "
         style="fill-rule:evenodd;stroke:#000000;stroke-width:1.0pt"
         transform="scale(0.4)" />
    </marker>
    <marker
       inkscape:stockid="Arrow2Send"
       orient="auto"
       refY="0.0"
       refX="0.0"
       id="Arrow2Send"
       style="overflow:visible;">
      <path
         id="path4354"
         style="fill-rule:evenodd;stroke-width:0.62500000;stroke-linejoin:round;"
         d="M 8.7185878,4.0337352 L -2.2072895,0.016013256 L 8.7185884,-4.0017078 C 6.9730900,-1.6296469 6.9831476,1.6157441 8.7185878,4.0337352 z "
         transform="scale(0.3) rotate(180) translate(-2.3,0)" />
    </marker>
    <marker
       inkscape:stockid="Arrow1Send"
       orient="auto"
       refY="0.0"
       refX="0.0"
       id="Arrow1Send"
       style="overflow:visible;">
      <path
         id="path4336"
         d="M 0.0,0.0 L 5.0,-5.0 L -12.5,0.0 L 5.0,5.0 L 0.0,0.0 z "
         style="fill-rule:evenodd;stroke:#000000;stroke-width:1.0pt;"
         transform="scale(0.2) rotate(180) translate(6,0)" />
    </marker>
    <marker
       inkscape:stockid="Arrow2Lend"
       orient="auto"
       refY="0.0"
       refX="0.0"
       id="Arrow2Lend"
       style="overflow:visible;">
      <path
         id="path4342"
         style="fill-rule:evenodd;stroke-width:0.62500000;stroke-linejoin:round;"
         d="M 8.7185878,4.0337352 L -2.2072895,0.016013256 L 8.7185884,-4.0017078 C 6.9730900,-1.6296469 6.9831476,1.6157441 8.7185878,4.0337352 z "
         transform="scale(1.1) rotate(180) translate(1,0)" />
    </marker>
    <marker
       inkscape:stockid="Arrow2Lstart"
       orient="auto"
       refY="0.0"
       refX="0.0"
       id="Arrow2Lstart"
       style="overflow:visible">
      <path
         id="path4339"
         style="fill-rule:evenodd;stroke-width:0.62500000;stroke-linejoin:round"
         d="M 8.7185878,4.0337352 L -2.2072895,0.016013256 L 8.7185884,-4.0017078 C 6.9730900,-1.6296469 6.9831476,1.6157441 8.7185878,4.0337352 z "
         transform="scale(1.1) translate(1,0)" />
    </marker>
    <marker
       style="overflow:visible;"
       id="Arrow1Mend"
       refX="0.0"
       refY="0.0"
       orient="auto"
       inkscape:stockid="Arrow1Mend">
      <path
         transform="scale(0.4) rotate(180) translate(10,0)"
         style="fill-rule:evenodd;stroke:#000000;stroke-width:1.0pt;"
         d="M 0.0,0.0 L 5.0,-5.0 L -12.5,0.0 L 5.0,5.0 L 0.0,0.0 z "
         id="path3879" />
    </marker>
    <marker
       style="overflow:visible"
       id="Arrow1Mstart"
       refX="0.0"
       refY="0.0"
       orient="auto"
       inkscape:stockid="Arrow1Mstart">
      <path
         transform="scale(0.4) translate(10,0)"
         style="fill-rule:evenodd;stroke:#000000;stroke-width:1.0pt"
         d="M 0.0,0.0 L 5.0,-5.0 L -12.5,0.0 L 5.0,5.0 L 0.0,0.0 z "
         id="path3876" />
    </marker>
    <marker
       style="overflow:visible;"
       id="Arrow1Lend"
       refX="0.0"
       refY="0.0"
       orient="auto"
       inkscape:stockid="Arrow1Lend">
      <path
         transform="scale(0.8) rotate(180) translate(12.5,0)"
         style="fill-rule:evenodd;stroke:#000000;stroke-width:1.0pt;"
         d="M 0.0,0.0 L 5.0,-5.0 L -12.5,0.0 L 5.0,5.0 L 0.0,0.0 z "
         id="path3873" />
    </marker>
    <marker
       style="overflow:visible"
       id="Arrow1Lstart"
       refX="0.0"
       refY="0.0"
       orient="auto"
       inkscape:stockid="Arrow1Lstart">
      <path
         transform="scale(0.8) translate(12.5,0)"
         style="fill-rule:evenodd;stroke:#000000;stroke-width:1.0pt"
         d="M 0.0,0.0 L 5.0,-5.0 L -12.5,0.0 L 5.0,5.0 L 0.0,0.0 z "
         id="path3870" />
    </marker>
    <marker
       inkscape:stockid="TriangleOutM"
       orient="auto"
       refY="0"
       refX="0"
       id="TriangleOutM-6"
       style="overflow:visible">
      <path
         inkscape:connector-curvature="0"
         id="path4466-7"
         d="m 5.77,0 -8.65,5 0,-10 8.65,5 z"
         style="fill-rule:evenodd;stroke:#000000;stroke-width:1pt"
         transform="scale(0.4,0.4)" />
    </marker>
  </defs>
  <metadata
     id="metadata7">
    <rdf:RDF>
      <cc:Work
         rdf:about="">
        <dc:format>image/svg+xml</dc:format>
        <dc:type
           rdf:resource="http://purl.org/dc/dcmitype/StillImage" />
        <dc:title />
      </cc:Work>
    </rdf:RDF>
  </metadata>
  <g
     inkscape:label="Layer"
     id="layer3"
     inkscape:groupmode="layer">
    <path
       sodipodi:open="true"
       sodipodi:end="4.3211461"
       sodipodi:start="2.7745432"
       d="m 229.09052,461.23898 a 157.67513,157.67513 0 0 1 87.04495,-202.3443"
       sodipodi:ry="157.67513"
       sodipodi:rx="157.67513"
       sodipodi:cy="404.65521"
       sodipodi:cx="376.26294"
       id="path5257"
       style="fill:#ffffff;fill-opacity:1;stroke:#000000;stroke-width:4;stroke-miterlimit:4;stroke-opacity:1;stroke-dasharray:none;marker-end:none;marker-start:url(#Arrow1Mstart)"
       sodipodi:type="arc" />
    <path
       inkscape:connector-curvature="0"
       id="path6773"
       d="m 267.61544,643.82846 0,-116.35454"
       style="fill:none;stroke:#000000;stroke-width:4;stroke-linecap:butt;stroke-linejoin:miter;stroke-opacity:1;marker-start:none;marker-end:url(#Arrow1Mend);stroke-miterlimit:4;stroke-dasharray:none" />
    <g
       ns0:preamble="/home/ben/configs/anyname.ini"
       ns0:text="$\\omega$"
       word-spacing="normal"
       letter-spacing="normal"
       font-size-adjust="none"
       font-stretch="normal"
       font-weight="normal"
       font-variant="normal"
       font-style="normal"
       stroke-miterlimit="10.433"
       xml:space="preserve"
       transform="matrix(6.5,0,0,-6.5,-1283.1932,4625.4842)"
       id="g3199"
       style="font-style:normal;font-variant:normal;font-weight:normal;font-stretch:normal;letter-spacing:normal;word-spacing:normal;text-anchor:start;fill:none;stroke:#000000;stroke-linecap:butt;stroke-linejoin:miter;stroke-miterlimit:10.43299961;stroke-opacity:1;stroke-dasharray:none;stroke-dashoffset:0"><path
         id="path3201"
         d="m 229.45,660.93 0,0.04 0,0.04 0,0.04 -0.01,0.04 0,0.03 -0.01,0.04 0,0.03 -0.01,0.04 -0.01,0.03 -0.01,0.03 -0.01,0.03 -0.01,0.03 -0.01,0.02 -0.01,0.03 -0.01,0.02 -0.02,0.03 -0.01,0.02 -0.01,0.02 -0.02,0.02 -0.01,0.01 -0.02,0.02 -0.02,0.01 -0.01,0.02 -0.02,0.01 -0.02,0.01 -0.02,0.01 -0.02,0.01 -0.02,0 -0.02,0.01 -0.02,0 -0.02,0.01 -0.02,0 c -0.26,0 -0.52,-0.24 -0.52,-0.47 0,-0.1 0.05,-0.21 0.15,-0.3 0.16,-0.15 0.34,-0.42 0.34,-0.83 0,-0.4 -0.19,-0.97 -0.49,-1.42 -0.3,-0.43 -0.67,-0.77 -1.14,-0.77 -0.57,0 -0.87,0.36 -0.96,0.89 0.11,0.26 0.33,0.9 0.33,1.18 0,0.12 -0.05,0.22 -0.17,0.22 -0.08,0 -0.19,-0.02 -0.27,-0.17 -0.11,-0.2 -0.23,-0.85 -0.23,-1.2 -0.33,-0.47 -0.73,-0.92 -1.35,-0.92 -0.66,0 -0.87,0.59 -0.87,1.14 0,1.24 1.01,2.29 1.01,2.42 0,0.11 -0.08,0.19 -0.18,0.19 -0.13,0 -0.2,-0.13 -0.26,-0.22 -0.51,-0.74 -0.89,-1.92 -0.89,-2.82 0,-0.69 0.23,-1.42 1.05,-1.42 0.7,0 1.17,0.49 1.53,1.04 0.09,-0.58 0.48,-1.04 1.09,-1.04 0.78,0 1.26,0.6 1.61,1.35 0.24,0.48 0.62,1.83 0.62,2.45 z"
         inkscape:connector-curvature="0"
         style="fill:#000000;stroke-width:0" /></g>    <g
       id="content"
       transform="matrix(6.5184271,0,0,-6.3347315,-2343.8948,4692.9932)"
       xml:space="preserve"
       stroke="black"
       stroke-linecap="butt"
       stroke-linejoin="miter"
       stroke-miterlimit="10.433"
       stroke-dasharray="none"
       stroke-dashoffset="0"
       stroke-opacity="1"
       fill="none"
       fill-rule="evenodd"
       fill-opacity="1"
       font-style="normal"
       font-variant="normal"
       font-weight="normal"
       font-stretch="normal"
       font-size-adjust="none"
       letter-spacing="normal"
       word-spacing="normal"
       text-anchor="start"
       ns0:text="\\begin{small}\n\\[ \\hat{\\textbf{n}} \\]\n\\end{small}"
       ns0:preamble="/home/ben/configs/anyname.ini"
       style="font-style:normal;font-variant:normal;font-weight:normal;font-stretch:normal;letter-spacing:normal;word-spacing:normal;text-anchor:start;fill:none;stroke:#000000;stroke-linecap:butt;stroke-linejoin:miter;stroke-miterlimit:10.43299961;stroke-opacity:1;stroke-dasharray:none;stroke-dashoffset:0"><polygon
         points="395.29,652.61 394.05,651.4 394.21,651.21 395.29,652.11 396.35,651.21 396.51,651.4 "
         stroke-width="0"
         fill="black"
         id="polygon6209" /><path
         d="M397.37,649 L397.37,649.05 L397.37,649.1 L397.37,649.15 L397.36,649.19 L397.36,649.24 L397.36,649.28 L397.34,649.36 L397.33,649.44 L397.31,649.52 L397.28,649.59 L397.26,649.65 L397.23,649.72 L397.2,649.78 L397.16,649.83 L397.13,649.88 L397.09,649.93 L397.04,649.97 L397,650.01 L396.95,650.05 L396.9,650.08 L396.85,650.12 L396.8,650.14 L396.74,650.17 L396.68,650.19 L396.62,650.21 L396.56,650.23 L396.5,650.25 L396.44,650.26 L396.37,650.27 L396.3,650.28 L396.23,650.29 L396.16,650.29 L396.09,650.3 L396.02,650.3 L395.95,650.3 C394.85,650.3,394.41,649.49,394.35,649.36 H394.34 V650.3 L392.79,650.23 V649.79 C393.33,649.79,393.4,649.79,393.4,649.44 V646.71 H392.79 V646.28 C393.45,646.3,393.56,646.3,393.92,646.3 C394.28,646.3,394.37,646.3,395.05,646.28 V646.71 H394.44 V648.55 C394.44,649.55,395.27,649.94,395.8,649.94 C396.15,649.94,396.33,649.75,396.33,649.08 V646.71 H395.72 V646.28 C396.38,646.3,396.49,646.3,396.84,646.3 C397.21,646.3,397.3,646.3,397.98,646.28 V646.71 H397.37 Z "
         stroke-width="0"
         fill="black"
         id="path6211" /></g>  </g>
  <g
     id="layer1"
     inkscape:groupmode="layer"
     inkscape:label="Layer 1">
    <path
       transform="matrix(1.2821402,0,0,1.2821402,-150.30261,-199.40693)"
       d="m 500.32454,471.2359 a 91.144394,91.144394 0 1 1 -182.28879,0 91.144394,91.144394 0 1 1 182.28879,0 z"
       sodipodi:ry="91.144394"
       sodipodi:rx="91.144394"
       sodipodi:cy="471.2359"
       sodipodi:cx="409.18015"
       id="path2985"
       style="fill:#ffffff;fill-opacity:1;fill-rule:evenodd;stroke:#000000;stroke-width:1px;stroke-linecap:butt;stroke-linejoin:miter;stroke-opacity:1"
       sodipodi:type="arc" />
    <path
       d="m 448.61139,719.45892 a 68.519897,85.973076 0 1 1 -137.0398,0 68.519897,85.973076 0 1 1 137.0398,0 z"
       sodipodi:ry="85.973076"
       sodipodi:rx="68.519897"
       sodipodi:cy="719.45892"
       sodipodi:cx="380.09149"
       id="path3759"
       style="fill:#ffffff;fill-opacity:1"
       sodipodi:type="arc" />
    <path
       d="m 438.26877,722.69098 a 63.994999,1.2928282 0 1 1 -127.99,0 63.994999,1.2928282 0 1 1 127.99,0 z"
       sodipodi:ry="1.2928282"
       sodipodi:rx="63.994999"
       sodipodi:cy="722.69098"
       sodipodi:cx="374.27377"
       id="path3761"
       style="fill:#ffffff;fill-opacity:1"
       sodipodi:type="arc" />
    <rect
       y="643.82849"
       x="0.63702023"
       height="74.984039"
       width="743.10803"
       id="rect3767"
       style="fill:#ffffff;fill-opacity:1;stroke:#000000;stroke-width:0.99550068;stroke-opacity:1" />
    <path
       inkscape:connector-curvature="0"
       id="path3771"
       d="M 376.26293,404.65523 317.80426,505.90861"
       style="fill:none;stroke:#000000;stroke-width:1px;stroke-linecap:butt;stroke-linejoin:miter;stroke-opacity:1" />
    <path
       inkscape:connector-curvature="0"
       id="path3773"
       d="m 433.98683,504.63595 -57.7239,-99.98072 -120.28294,0 232.70908,0 -112.42614,0 -57.89885,-100.28375 57.89885,100.28375 57.31408,-99.2709"
       style="fill:none;stroke:#000000;stroke-width:1px;stroke-linecap:butt;stroke-linejoin:miter;stroke-opacity:1" />
    <flowRoot
       xml:space="preserve"
       id="flowRoot3509"
       style="fill:black;stroke:none;stroke-opacity:1;stroke-width:1px;stroke-linejoin:miter;stroke-linecap:butt;fill-opacity:1;font-family:Sans;font-style:normal;font-weight:normal;font-size:36px;line-height:125%;letter-spacing:0px;word-spacing:0px"><flowRegion
         id="flowRegion3511"><rect
           id="rect3513"
           width="629.60736"
           height="46.541817"
           x="80.15535"
           y="660.63525"
           style="font-size:36px" /></flowRegion><flowPara
         id="flowPara3515" /></flowRoot>    <text
       xml:space="preserve"
       style="font-size:36px;font-style:normal;font-weight:normal;line-height:125%;letter-spacing:0px;word-spacing:0px;fill:#000000;fill-opacity:1;stroke:none;font-family:Sans"
       x="183.58162"
       y="689.07745"
       id="text3517"
       sodipodi:linespacing="125%"><tspan
         sodipodi:role="line"
         id="tspan3519"
         x="183.58162"
         y="689.07745"
         style="-inkscape-font-specification:Liberation Serif;font-family:Liberation Serif;font-weight:normal;font-style:normal;font-stretch:normal;font-variant:normal">Conductive Target Surface</tspan></text>
    <path
       style="fill:none;stroke:#000000;stroke-width:4;stroke-linecap:butt;stroke-linejoin:miter;stroke-opacity:1;stroke-miterlimit:4;stroke-dasharray:none;marker-start:none;marker-end:url(#TriangleOutM)"
       d="m 51.713129,642.53563 0,-129.28282"
       id="path3523"
       inkscape:connector-curvature="0" />
    <path
       style="fill:none;stroke:#000000;stroke-width:4;stroke-linecap:butt;stroke-linejoin:miter;stroke-miterlimit:4;stroke-opacity:1;stroke-dasharray:none;marker-start:none;marker-end:url(#TriangleOutM)"
       d="m 51.475615,642.53563 129.282825,0"
       id="path3523-8"
       inkscape:connector-curvature="0" />
    <flowRoot
       xml:space="preserve"
       id="flowRoot6159"
       style="font-size:36px;font-style:normal;font-variant:normal;font-weight:500;font-stretch:normal;line-height:125%;letter-spacing:0px;word-spacing:0px;fill:#000000;fill-opacity:1;stroke:none;font-family:TeX Gyre Chorus;-inkscape-font-specification:TeX Gyre Chorus Medium"
       transform="translate(-1.2928282,-19.392423)"><flowRegion
         id="flowRegion6161"><rect
           id="rect6163"
           width="55.591614"
           height="46.541817"
           x="63.348583"
           y="531.35242"
           style="font-size:36px;font-style:normal;font-variant:normal;font-weight:500;font-stretch:normal;font-family:TeX Gyre Chorus;-inkscape-font-specification:TeX Gyre Chorus Medium" /></flowRegion><flowPara
         id="flowPara6165"
         style="font-style:italic;font-variant:normal;font-weight:normal;font-stretch:normal;font-family:Liberation Serif;-inkscape-font-specification:Liberation Serif">z</flowPara></flowRoot>    <text
       xml:space="preserve"
       style="font-size:36px;font-style:italic;font-variant:normal;font-weight:bold;font-stretch:normal;line-height:125%;letter-spacing:0px;word-spacing:0px;fill:#000000;fill-opacity:1;stroke:none;font-family:URW Chancery L;-inkscape-font-specification:URW Chancery L Bold Italic"
       x="147.38242"
       y="625.72888"
       id="text6167"
       sodipodi:linespacing="125%"><tspan
         sodipodi:role="line"
         id="tspan6169"
         x="147.38242"
         y="625.72888"
         style="font-style:italic;font-variant:normal;font-weight:normal;font-stretch:normal;font-family:Liberation Serif;-inkscape-font-specification:Liberation Serif Italic">x</tspan></text>
    <text
       xml:space="preserve"
       style="font-size:14px;font-style:normal;font-weight:normal;line-height:125%;letter-spacing:0px;word-spacing:0px;fill:#000000;fill-opacity:1;stroke:none;font-family:Sans"
       x="442.14725"
       y="289.59354"
       id="text6171"
       sodipodi:linespacing="125%"><tspan
         sodipodi:role="line"
         id="tspan6173"
         x="442.14725"
         y="289.59354"
         style="font-size:36px;font-style:normal;font-variant:normal;font-weight:normal;font-stretch:normal;font-family:Liberation Serif;-inkscape-font-specification:Liberation Serif">Magnet Array</tspan></text>
  </g>
  <g
     inkscape:label="Layer2"
     id="layer2"
     inkscape:groupmode="layer">
    <path
       transform="translate(108.64748,-283.12938)"
       d="m 341.30666,687.78461 a 73.691208,73.691208 0 1 1 -147.38242,0 73.691208,73.691208 0 1 1 147.38242,0 z"
       sodipodi:ry="73.691208"
       sodipodi:rx="73.691208"
       sodipodi:cy="687.78461"
       sodipodi:cx="267.61545"
       id="path3763-8"
       style="fill:#ffffff;fill-opacity:1;stroke:#000000;stroke-opacity:1"
       sodipodi:type="arc" />
    <flowRoot
       style="fill:black;stroke:none;stroke-opacity:1;stroke-width:1px;stroke-linejoin:miter;stroke-linecap:butt;fill-opacity:1;font-family:Sans;font-style:normal;font-weight:normal;font-size:24px;line-height:125%;letter-spacing:0px;word-spacing:0px"
       id="flowRoot3803"
       xml:space="preserve"><flowRegion
         id="flowRegion3805"><rect
           style="font-size:24px"
           y="471.88229"
           x="340.01382"
           height="53.005959"
           width="86.619492"
           id="rect3807" /></flowRegion><flowPara
         id="flowPara3809" /></flowRoot>    <flowRoot
       style="fill:black;stroke:none;stroke-opacity:1;stroke-width:1px;stroke-linejoin:miter;stroke-linecap:butt;fill-opacity:1;font-family:Sans;font-style:normal;font-weight:normal;font-size:14px;line-height:125%;letter-spacing:0px;word-spacing:0px"
       id="flowRoot3811"
       xml:space="preserve"><flowRegion
         id="flowRegion3813"><rect
           y="482.22495"
           x="350.35645"
           height="40.077675"
           width="63.348583"
           id="rect3815" /></flowRegion><flowPara
         id="flowPara3817" /></flowRoot>    <text
       sodipodi:linespacing="125%"
       id="text3819"
       y="511.95996"
       x="359.40625"
       style="font-size:14px;font-style:normal;font-weight:normal;line-height:125%;letter-spacing:0px;word-spacing:0px;fill:#000000;fill-opacity:1;stroke:none;font-family:Sans"
       xml:space="preserve"><tspan
         style="font-size:36px"
         y="511.95996"
         x="359.40625"
         id="tspan3821"
         sodipodi:role="line">N</tspan></text>
    <text
       sodipodi:linespacing="125%"
       id="text3819-2"
       y="322.10803"
       x="360.16251"
       style="font-size:14px;font-style:normal;font-weight:normal;line-height:125%;letter-spacing:0px;word-spacing:0px;fill:#000000;fill-opacity:1;stroke:none;font-family:Sans"
       xml:space="preserve"><tspan
         style="font-size:36px"
         y="322.10803"
         x="360.16251"
         id="tspan3821-3"
         sodipodi:role="line">S</tspan><tspan
         id="tspan3844"
         style="font-size:36px"
         y="367.10803"
         x="360.16251"
         sodipodi:role="line" /></text>
    <g
       transform="matrix(1,0,0,0.86524852,0,86.497206)"
       id="g3850">
      <flowRoot
         style="fill:black;stroke:none;stroke-opacity:1;stroke-width:1px;stroke-linejoin:miter;stroke-linecap:butt;fill-opacity:1;font-family:Sans;font-style:normal;font-weight:normal;font-size:14px;line-height:125%;letter-spacing:0px;word-spacing:0px"
         id="flowRoot3856"
         xml:space="preserve"><flowRegion
           id="flowRegion3858"><rect
             y="546.86633"
             x="416.29068"
             height="60.762928"
             width="64.641411"
             id="rect3860" /></flowRegion><flowPara
           id="flowPara3862" /></flowRoot>    </g>
    <path
       inkscape:connector-curvature="0"
       id="path3864"
       d="m 372.33453,527.47392 0,108.59757"
       style="fill:none;stroke:#000000;stroke-width:4;stroke-linecap:butt;stroke-linejoin:miter;stroke-miterlimit:4;stroke-opacity:1;stroke-dasharray:none;marker-start:url(#Arrow1Mstart);marker-mid:none;marker-end:url(#Arrow1Mend)" />
    <flowRoot
       style="fill:black;stroke:none;stroke-opacity:1;stroke-width:1px;stroke-linejoin:miter;stroke-linecap:butt;fill-opacity:1;font-family:Sans;font-style:normal;font-weight:normal;font-size:14px;line-height:125%;letter-spacing:0px;word-spacing:0px"
       id="flowRoot5242"
       xml:space="preserve"><flowRegion
         id="flowRegion5244"><rect
           y="557.20898"
           x="396.89825"
           height="59.4701"
           width="78.862526"
           id="rect5246" /></flowRegion><flowPara
         id="flowPara5248" /></flowRoot>    <g
       style="font-style:normal;font-variant:normal;font-weight:normal;font-stretch:normal;letter-spacing:normal;word-spacing:normal;text-anchor:start;fill:none;stroke:#000000;stroke-linecap:butt;stroke-linejoin:miter;stroke-miterlimit:10.43299961;stroke-opacity:1;stroke-dasharray:none;stroke-dashoffset:0"
       ns0:preamble="/home/ben/configs/anyname.ini"
       ns0:text="$g$"
       word-spacing="normal"
       letter-spacing="normal"
       font-size-adjust="none"
       font-stretch="normal"
       font-weight="normal"
       font-variant="normal"
       font-style="normal"
       stroke-miterlimit="10.433"
       xml:space="preserve"
       transform="matrix(6.5,0,0,-6.5,-1060.8268,4872.4144)"
       id="g3453"><path
         id="path3455"
         d="m 228.12,660.98 0,0.01 0,0.01 0,0.01 0.01,0.01 0,0.02 0,0.02 0.01,0.01 0,0.01 0,0.01 0,0.01 0,0.01 0.01,0.01 0,0.01 0,0 0,0.01 0,0.01 0,0 0,0.01 c 0,0.17 -0.12,0.27 -0.29,0.27 -0.1,0 -0.37,-0.07 -0.41,-0.43 -0.18,0.37 -0.53,0.63 -0.92,0.63 l 0.01,-0.22 c 0.65,0 0.79,-0.81 0.79,-0.86 0,-0.05 -0.02,-0.11 -0.03,-0.15 l -0.48,-1.89 c -0.06,-0.26 -0.28,-0.51 -0.5,-0.7 -0.21,-0.18 -0.52,-0.36 -0.81,-0.36 -0.5,0 -0.64,0.52 -0.64,0.92 0,0.47 0.28,1.65 0.55,2.15 0.27,0.49 0.7,0.89 1.12,0.89 l -0.01,0.22 c -1.14,0 -2.37,-1.4 -2.37,-2.83 0,-0.98 0.6,-1.57 1.32,-1.57 0.59,0 1.06,0.47 1.16,0.58 l 0.01,-0.01 c -0.21,-0.88 -0.33,-1.29 -0.33,-1.31 -0.04,-0.09 -0.38,-1.07 -1.44,-1.07 -0.18,0 -0.51,0.01 -0.79,0.1 0.3,0.09 0.41,0.34 0.41,0.51 0,0.16 -0.11,0.35 -0.38,0.35 -0.22,0 -0.54,-0.18 -0.54,-0.58 0,-0.4 0.37,-0.6 1.32,-0.6 1.25,0 1.96,0.77 2.11,1.37 z"
         inkscape:connector-curvature="0"
         style="fill:#000000;stroke-width:0" /></g>    <path
       sodipodi:type="arc"
       style="fill:#ffffff;fill-opacity:1;stroke:#000000;stroke-width:1;stroke-miterlimit:4;stroke-opacity:1;stroke-dasharray:none"
       id="path6175"
       sodipodi:cx="374.3237"
       sodipodi:cy="404.78357"
       sodipodi:rx="15.385615"
       sodipodi:ry="15.385615"
       d="m 389.70932,404.78357 a 15.385615,15.385615 0 1 1 -30.77124,0 15.385615,15.385615 0 1 1 30.77124,0 z" />
    <path
       sodipodi:type="arc"
       style="fill:#000000;fill-opacity:1;stroke:#000000;stroke-width:1;stroke-miterlimit:4;stroke-opacity:1;stroke-dasharray:none"
       id="path6177"
       sodipodi:cx="374.3237"
       sodipodi:cy="404.78357"
       sodipodi:rx="6.3358173"
       sodipodi:ry="6.3358173"
       d="m 380.65952,404.78357 a 6.3358173,6.3358173 0 1 1 -12.67164,0 6.3358173,6.3358173 0 1 1 12.67164,0 z" />
    <g
       style="font-style:normal;font-variant:normal;font-weight:normal;font-stretch:normal;letter-spacing:normal;word-spacing:normal;text-anchor:start;fill:none;stroke:#000000;stroke-linecap:butt;stroke-linejoin:miter;stroke-miterlimit:10.43299961;stroke-opacity:1;stroke-dasharray:none;stroke-dashoffset:0"
       ns0:preamble="/home/ben/configs/anyname.ini"
       ns0:text="$\\hat{\\textbf{a}}$"
       word-spacing="normal"
       letter-spacing="normal"
       font-size-adjust="none"
       font-stretch="normal"
       font-weight="normal"
       font-variant="normal"
       font-style="normal"
       stroke-miterlimit="10.433"
       xml:space="preserve"
       transform="matrix(6.5,0,0,-6.5,-1057.6674,4688.9926)"
       id="g6379"><polygon
         style="fill:#000000;stroke-width:0"
         id="polygon6381"
         points="226.21,664.27 224.88,662.92 225.06,662.74 226.21,663.75 227.36,662.74 227.54,662.92 " /><path
         style="fill:#000000;stroke-width:0"
         inkscape:connector-curvature="0"
         id="path6383"
         d="m 227.15,658 0,-0.06 0.01,-0.06 0,-0.03 0,-0.03 0,-0.04 0.01,-0.03 0.01,-0.03 0,-0.03 0.02,-0.04 0.01,-0.03 0.01,-0.03 0.02,-0.03 0.02,-0.03 0.02,-0.03 0.03,-0.03 0.03,-0.02 0.03,-0.03 0.02,-0.01 0.02,-0.01 0.02,-0.02 0.02,-0.01 0.02,-0.01 0.02,-0.01 0.02,-0.01 0.03,-0.01 0.02,-0.01 0.03,-0.01 0.03,-0.01 0.03,-0.01 0.03,0 0.03,-0.01 0.03,-0.01 0.03,0 0.04,-0.01 0.04,0 0.03,-0.01 0.04,0 0.04,-0.01 0.05,0 0.04,0 0.04,0 0.05,0 0.05,-0.01 h 0.47 c 0.2,0 0.32,0 0.32,0.24 0,0.23 -0.13,0.23 -0.25,0.23 -0.61,0.01 -0.61,0.14 -0.61,0.37 v 2.14 c 0,0.88 -0.71,1.52 -2.19,1.52 -0.57,0 -1.78,-0.03 -1.78,-0.91 0,-0.44 0.35,-0.62 0.61,-0.62 0.31,0 0.63,0.2 0.63,0.62 0,0.3 -0.19,0.47 -0.22,0.49 0.28,0.06 0.6,0.07 0.72,0.07 0.75,0 1.09,-0.42 1.09,-1.17 v -0.34 -0.31 -0.94 c 0,-0.96 -0.91,-1.09 -1.16,-1.09 -0.51,0 -0.91,0.35 -0.91,0.79 0,1.07 1.58,1.21 2.07,1.24 h 0 v 0.31 c -0.7,-0.03 -3.23,-0.12 -3.23,-1.56 0,-0.96 1.23,-1.14 1.92,-1.14 0.8,0 1.26,0.41 1.48,0.83 z" /></g>  </g>
</svg>
